<svg width="15" height="8" viewBox="0 0 15 8" fill="none" xmlns="http://www.w3.org/2000/svg">
<path d="M14.5 4.25001C14.5002 4.13723 14.4754 4.0258 14.4273 3.92377C14.3792 3.82174 14.3091 3.73165 14.222 3.66001L11.276 0.720015C11.1354 0.579564 10.9448 0.500674 10.746 0.500674C10.5472 0.500674 10.3566 0.579564 10.216 0.720015C10.1465 0.789476 10.0914 0.871945 10.0538 0.962712C10.0162 1.05348 9.99683 1.15077 9.99683 1.24901C9.99683 1.34726 10.0162 1.44455 10.0538 1.53532C10.0914 1.62608 10.1465 1.70855 10.216 1.77801L11.934 3.50001L1.25 3.50001C1.05109 3.50001 0.860322 3.57903 0.71967 3.71969C0.579017 3.86034 0.5 4.0511 0.5 4.25001C0.5 4.44893 0.579017 4.63969 0.71967 4.78034C0.860322 4.921 1.05109 5.00001 1.25 5.00001L11.944 5.00001L10.211 6.72201C10.1414 6.79149 10.0861 6.87403 10.0484 6.96489C10.0107 7.05574 9.99133 7.15315 9.99133 7.25151C9.99133 7.34988 10.0107 7.44728 10.0484 7.53814C10.0861 7.629 10.1414 7.71153 10.211 7.78101C10.2807 7.85071 10.3634 7.906 10.4544 7.94372C10.5454 7.98144 10.643 8.00085 10.7415 8.00085C10.84 8.00085 10.9376 7.98144 11.0286 7.94372C11.1196 7.906 11.2023 7.85071 11.272 7.78101L14.28 4.77701C14.3502 4.70847 14.4059 4.62647 14.4437 4.53592C14.4815 4.44537 14.5006 4.34813 14.5 4.25001Z" fill="#99EFD0"/>
</svg>
