<svg width="120" height="36" viewBox="0 0 120 36" fill="none" xmlns="http://www.w3.org/2000/svg">
<path fill-rule="evenodd" clip-rule="evenodd" d="M47.6362 13.1682C47.2874 13.1682 46.9503 13.2185 46.6318 13.3122L42.7761 8.36374C42.9345 7.96057 43.0215 7.52146 43.0215 7.06199C43.0215 5.09722 41.4304 3.50447 39.4677 3.50447C38.9048 3.50447 38.3724 3.63551 37.8993 3.86879L37.9048 3.84723L27.3842 1.16267C26.9546 0.465033 26.1844 0 25.3056 0C24.2256 0 23.3095 0.702424 22.9884 1.67579L10.5438 4.96649C9.89856 4.07027 8.8468 3.48683 7.65892 3.48683C5.69623 3.48683 4.10515 5.07959 4.10515 7.04436C4.10515 7.99805 4.48002 8.86409 5.0903 9.50287L1.98801 17.8496C0.856389 18.0617 0 19.0559 0 20.2502C0 21.5992 1.09238 22.6927 2.4399 22.6927C2.9323 22.6927 3.39062 22.5467 3.77403 22.2956L17.6132 26.2004C17.8442 27.3089 18.8258 28.1416 20.0017 28.1416C20.9008 28.1416 21.6863 27.6548 22.1096 26.93L40.528 27.7469L34.1813 31.676C33.759 31.3256 33.2168 31.115 32.6255 31.115C31.2779 31.115 30.1856 32.2086 30.1856 33.5575C30.1856 34.9065 31.2779 36 32.6255 36C33.973 36 35.0654 34.9065 35.0654 33.5575C35.0654 33.3881 35.0481 33.2228 35.0154 33.0631L41.4674 29.0688C41.8894 29.4183 42.431 29.6283 43.0215 29.6283C44.369 29.6283 45.4614 28.5348 45.4614 27.1858C45.4614 26.7298 45.3365 26.303 45.1192 25.9377L45.26 25.9956L47.6038 20.2831C47.6146 20.2832 47.6254 20.2832 47.6362 20.2832C49.5989 20.2832 51.19 18.6905 51.19 16.7257C51.19 14.7609 49.5989 13.1682 47.6362 13.1682ZM26.1284 2.44248C26.1284 2.89734 25.76 3.26607 25.3056 3.26607C24.8513 3.26607 24.4829 2.89734 24.4829 2.44248C24.4829 1.98762 24.8513 1.61889 25.3056 1.61889C25.76 1.61889 26.1284 1.98762 26.1284 2.44248ZM27.7001 2.91394C27.5527 3.66873 27.058 4.29906 26.3893 4.63142L26.9149 13.1255C28.2459 13.3506 29.3254 14.3164 29.7156 15.5847H44.2692C44.4597 15.021 44.7876 14.5206 45.213 14.1235L41.8014 9.74505C41.1771 10.2897 40.3609 10.6195 39.4677 10.6195C37.505 10.6195 35.914 9.02676 35.914 7.06199C35.914 6.35891 36.1177 5.70346 36.4693 5.15159L27.7001 2.91394ZM46.0157 19.8927C45.0026 19.3721 44.2719 18.3787 44.1142 17.2036H29.827C29.5543 18.8972 28.0874 20.1907 26.3187 20.1907C25.7411 20.1907 25.1958 20.0528 24.7136 19.808L21.8064 24.0554C22.1213 24.4017 22.3381 24.8389 22.4128 25.323L40.8163 26.1392C41.2078 25.3139 42.0481 24.7434 43.0215 24.7434C43.3504 24.7434 43.6641 24.8085 43.9504 24.9266L46.0157 19.8927ZM23.4701 18.7607L20.3735 23.2848C20.2523 23.2663 20.1281 23.2567 20.0017 23.2567C19.4777 23.2567 18.9923 23.422 18.5947 23.7034L12.7779 15.9746C12.8229 15.8977 12.8639 15.8181 12.9005 15.7361L22.7916 17.0712C22.8687 17.6997 23.1095 18.2776 23.4701 18.7607ZM24.9877 18.0414L25.4897 18.3857C25.741 18.505 26.022 18.5718 26.3187 18.5718C27.3882 18.5718 28.2553 17.7038 28.2553 16.6331C28.2553 15.5625 27.3882 14.6945 26.3187 14.6945C25.2491 14.6945 24.3821 15.5625 24.3821 16.6331C24.3821 17.1878 24.6148 17.688 24.9877 18.0414ZM11.5421 17.023C11.2718 17.1264 10.9784 17.183 10.6718 17.183C10.1626 17.183 9.68981 17.0268 9.29863 16.7597L4.87968 20.276C4.87745 20.4922 4.84716 20.7016 4.79227 20.9009L17.0674 24.3645L11.5421 17.023ZM8.23192 14.7405C8.23192 14.9894 8.26911 15.2297 8.33825 15.4559L4.29984 18.6693C4.10856 18.444 3.87714 18.2539 3.61667 18.1101L6.4816 10.402C6.85006 10.5315 7.24627 10.6019 7.65892 10.6019C9.62161 10.6019 11.2127 9.00913 11.2127 7.04436C11.2127 6.8509 11.1973 6.66105 11.1676 6.47597L23.0349 3.3379C23.3294 4.0858 23.982 4.65319 24.7812 4.82841L25.3007 13.2237C24.2082 13.5501 23.3362 14.3885 22.9624 15.4607L13.0324 14.1204C12.7583 13.0718 11.8053 12.298 10.6718 12.298C9.3243 12.298 8.23192 13.3916 8.23192 14.7405ZM9.59551 7.04436C9.59551 8.11504 8.72847 8.983 7.65892 8.983C6.58937 8.983 5.72232 8.11504 5.72232 7.04436C5.72232 5.97368 6.58937 5.10572 7.65892 5.10572C8.72847 5.10572 9.59551 5.97368 9.59551 7.04436ZM2.4399 21.0738C2.89428 21.0738 3.26263 20.7051 3.26263 20.2502C3.26263 19.7954 2.89428 19.4266 2.4399 19.4266C1.98553 19.4266 1.61718 19.7954 1.61718 20.2502C1.61718 20.7051 1.98553 21.0738 2.4399 21.0738ZM20.8244 25.6991C20.8244 26.154 20.4561 26.5227 20.0017 26.5227C19.5473 26.5227 19.179 26.154 19.179 25.6991C19.179 25.2443 19.5473 24.8755 20.0017 24.8755C20.4561 24.8755 20.8244 25.2443 20.8244 25.6991ZM43.8442 27.1858C43.8442 27.6407 43.4758 28.0094 43.0215 28.0094C42.5671 28.0094 42.1987 27.6407 42.1987 27.1858C42.1987 26.731 42.5671 26.3622 43.0215 26.3622C43.4758 26.3622 43.8442 26.731 43.8442 27.1858ZM32.6255 34.3811C33.0798 34.3811 33.4482 34.0124 33.4482 33.5575C33.4482 33.1027 33.0798 32.7339 32.6255 32.7339C32.1711 32.7339 31.8027 33.1027 31.8027 33.5575C31.8027 34.0124 32.1711 34.3811 32.6255 34.3811ZM11.4945 14.7405C11.4945 15.1954 11.1262 15.5641 10.6718 15.5641C10.2174 15.5641 9.84909 15.1954 9.84909 14.7405C9.84909 14.2857 10.2174 13.9169 10.6718 13.9169C11.1262 13.9169 11.4945 14.2857 11.4945 14.7405ZM39.4677 9.00063C40.5373 9.00063 41.4043 8.13267 41.4043 7.06199C41.4043 5.99131 40.5373 5.12335 39.4677 5.12335C38.3982 5.12335 37.5311 5.99131 37.5311 7.06199C37.5311 8.13267 38.3982 9.00063 39.4677 9.00063ZM49.5728 16.7257C49.5728 17.7964 48.7058 18.6643 47.6362 18.6643C46.5667 18.6643 45.6996 17.7964 45.6996 16.7257C45.6996 15.655 46.5667 14.7871 47.6362 14.7871C48.7058 14.7871 49.5728 15.655 49.5728 16.7257Z" fill="#F2994A"/>
<path d="M56.169 8.46234C56.169 8.06753 56.3038 7.74545 56.5735 7.4961C56.8639 7.22597 57.227 7.09091 57.6627 7.09091H66.7493C68.1185 7.09091 69.3321 7.38182 70.3901 7.96364C71.4482 8.52468 72.2676 9.32467 72.8485 10.3636C73.4294 11.3818 73.7198 12.5558 73.7198 13.8857C73.7198 15.2571 73.4294 16.4623 72.8485 17.5013C72.2884 18.5403 71.4793 19.3403 70.4213 19.9013C69.3632 20.4623 68.1392 20.7429 66.7493 20.7429H59.0941V26.7584C59.0941 27.5481 58.8452 28.1507 58.3473 28.5662C57.8494 28.9818 57.1233 29.1896 56.169 29.1896V8.46234ZM66.7493 18.1558C67.994 18.1558 68.9794 17.7818 69.7055 17.0338C70.4316 16.2649 70.7947 15.2156 70.7947 13.8857C70.7947 12.5974 70.4213 11.5792 69.6744 10.8312C68.9483 10.0623 67.9733 9.67792 66.7493 9.67792H59.0941V18.1558H66.7493Z" fill="#F2994A"/>
<path d="M81.6723 10.7065C81.0914 10.7065 80.6039 10.5195 80.2097 10.1455C79.8156 9.77143 79.6185 9.3039 79.6185 8.74286C79.6185 8.18182 79.8156 7.72468 80.2097 7.37143C80.6039 6.9974 81.0914 6.81039 81.6723 6.81039C82.2325 6.81039 82.7096 6.9974 83.1038 7.37143C83.4979 7.72468 83.695 8.18182 83.695 8.74286C83.695 9.3039 83.4979 9.77143 83.1038 10.1455C82.7096 10.5195 82.2325 10.7065 81.6723 10.7065ZM80.3031 15.039C80.3031 14.3532 80.5209 13.8545 80.9566 13.5429C81.413 13.2104 82.0976 13.0442 83.0104 13.0442V27.1948C83.0104 27.8805 82.7822 28.3896 82.3258 28.7221C81.8902 29.0338 81.2159 29.1896 80.3031 29.1896V15.039Z" fill="#F2994A"/>
<path d="M92.7034 29.1896C92.081 29.0649 91.5935 28.8052 91.2408 28.4104C90.8881 27.9948 90.7118 27.4961 90.7118 26.9143C90.7118 26.5195 90.8051 26.1039 90.9918 25.6675L98.4292 7.74546C98.6781 7.12208 99.1553 6.81039 99.8606 6.81039C100.524 6.81039 100.991 7.12208 101.261 7.74546L108.698 25.6675C108.885 26.1039 108.978 26.5195 108.978 26.9143C108.978 27.4753 108.802 27.9636 108.449 28.3792C108.097 28.7948 107.609 29.0649 106.987 29.1896L104.311 22.6753H95.3795L92.7034 29.1896ZM103.408 20.1507L99.3938 9.95844L99.1449 10.0519L99.705 11.4857L96.282 20.1507H103.408Z" fill="#F2994A"/>
<path d="M116.595 9.24156C116.595 8.47273 116.844 7.88052 117.342 7.46494C117.86 7.02857 118.586 6.81039 119.52 6.81039V26.7584C119.52 27.5273 119.261 28.1299 118.742 28.5662C118.244 28.9818 117.528 29.1896 116.595 29.1896V9.24156Z" fill="#F2994A"/>
</svg>
