<svg width="156" height="20" viewBox="0 0 156 20" fill="none" xmlns="http://www.w3.org/2000/svg">
<path d="M9.42617 19.375C7.62617 19.375 6.07201 18.9833 4.76367 18.2C3.46367 17.4167 2.45951 16.3208 1.75117 14.9125C1.05117 13.5042 0.701172 11.8667 0.701172 10C0.701172 8.13333 1.05117 6.49583 1.75117 5.0875C2.45951 3.67917 3.46367 2.58333 4.76367 1.8C6.07201 1.01667 7.62617 0.625 9.42617 0.625C11.4928 0.625 13.2262 1.1375 14.6262 2.1625C16.0345 3.1875 17.0262 4.575 17.6012 6.325L14.1762 7.275C13.8428 6.18333 13.2803 5.3375 12.4887 4.7375C11.697 4.12917 10.6762 3.825 9.42617 3.825C8.28451 3.825 7.33034 4.07917 6.56367 4.5875C5.80534 5.09583 5.23451 5.8125 4.85117 6.7375C4.46784 7.6625 4.27617 8.75 4.27617 10C4.27617 11.25 4.46784 12.3375 4.85117 13.2625C5.23451 14.1875 5.80534 14.9042 6.56367 15.4125C7.33034 15.9208 8.28451 16.175 9.42617 16.175C10.6762 16.175 11.697 15.8708 12.4887 15.2625C13.2803 14.6542 13.8428 13.8083 14.1762 12.725L17.6012 13.675C17.0262 15.425 16.0345 16.8125 14.6262 17.8375C13.2262 18.8625 11.4928 19.375 9.42617 19.375ZM27.7035 19.375C25.9035 19.375 24.3493 18.9833 23.041 18.2C21.741 17.4167 20.7368 16.3208 20.0285 14.9125C19.3285 13.5042 18.9785 11.8667 18.9785 10C18.9785 8.13333 19.3285 6.49583 20.0285 5.0875C20.7368 3.67917 21.741 2.58333 23.041 1.8C24.3493 1.01667 25.9035 0.625 27.7035 0.625C29.5035 0.625 31.0535 1.01667 32.3535 1.8C33.6618 2.58333 34.666 3.67917 35.366 5.0875C36.0743 6.49583 36.4285 8.13333 36.4285 10C36.4285 11.8667 36.0743 13.5042 35.366 14.9125C34.666 16.3208 33.6618 17.4167 32.3535 18.2C31.0535 18.9833 29.5035 19.375 27.7035 19.375ZM27.7035 16.175C28.8452 16.1917 29.7952 15.9458 30.5535 15.4375C31.3118 14.9292 31.8785 14.2083 32.2535 13.275C32.6369 12.3417 32.8285 11.25 32.8285 10C32.8285 8.75 32.6369 7.66667 32.2535 6.75C31.8785 5.83333 31.3118 5.12083 30.5535 4.6125C29.7952 4.10417 28.8452 3.84167 27.7035 3.825C26.5618 3.80833 25.6118 4.05417 24.8535 4.5625C24.0952 5.07083 23.5243 5.79167 23.141 6.725C22.766 7.65833 22.5785 8.75 22.5785 10C22.5785 11.25 22.766 12.3333 23.141 13.25C23.5243 14.1667 24.0952 14.8792 24.8535 15.3875C25.6118 15.8958 26.5618 16.1583 27.7035 16.175ZM38.5488 19V0.999999H41.9988L49.8238 13V0.999999H53.2738V19H49.8238L41.9988 7V19H38.5488ZM60.5617 19V4.175H54.8867V0.999999H69.6367V4.175H63.9617V19H60.5617ZM69.5322 19L75.0322 0.999999H80.1072L85.6072 19H82.1072L77.2072 3.125H77.8572L73.0322 19H69.5322ZM72.8322 15.25V12.075H82.3322V15.25H72.8322ZM94.7094 19.375C92.9094 19.375 91.3552 18.9833 90.0469 18.2C88.7469 17.4167 87.7427 16.3208 87.0344 14.9125C86.3344 13.5042 85.9844 11.8667 85.9844 10C85.9844 8.13333 86.3344 6.49583 87.0344 5.0875C87.7427 3.67917 88.7469 2.58333 90.0469 1.8C91.3552 1.01667 92.9094 0.625 94.7094 0.625C96.776 0.625 98.5094 1.1375 99.9094 2.1625C101.318 3.1875 102.309 4.575 102.884 6.325L99.4594 7.275C99.126 6.18333 98.5635 5.3375 97.7719 4.7375C96.9802 4.12917 95.9594 3.825 94.7094 3.825C93.5677 3.825 92.6135 4.07917 91.8469 4.5875C91.0885 5.09583 90.5177 5.8125 90.1344 6.7375C89.751 7.6625 89.5594 8.75 89.5594 10C89.5594 11.25 89.751 12.3375 90.1344 13.2625C90.5177 14.1875 91.0885 14.9042 91.8469 15.4125C92.6135 15.9208 93.5677 16.175 94.7094 16.175C95.9594 16.175 96.9802 15.8708 97.7719 15.2625C98.5635 14.6542 99.126 13.8083 99.4594 12.725L102.884 13.675C102.309 15.425 101.318 16.8125 99.9094 17.8375C98.5094 18.8625 96.776 19.375 94.7094 19.375ZM109.437 19V4.175H103.762V0.999999H118.512V4.175H112.837V19H109.437Z" fill="#99EFD0"/>
<path d="M131.344 19.375C129.894 19.375 128.619 19.0833 127.519 18.5C126.419 17.9083 125.56 17.0792 124.944 16.0125C124.327 14.9458 124.019 13.6917 124.019 12.25V1.025L127.469 0.999999V12.225C127.469 12.8167 127.569 13.3542 127.769 13.8375C127.969 14.3208 128.244 14.7375 128.594 15.0875C128.952 15.4375 129.364 15.7083 129.831 15.9C130.306 16.0833 130.81 16.175 131.344 16.175C131.894 16.175 132.402 16.0792 132.869 15.8875C133.344 15.6958 133.756 15.425 134.106 15.075C134.456 14.725 134.727 14.3083 134.919 13.825C135.119 13.3417 135.219 12.8083 135.219 12.225V0.999999H138.669V12.25C138.669 13.6917 138.36 14.9458 137.744 16.0125C137.127 17.0792 136.269 17.9083 135.169 18.5C134.069 19.0833 132.794 19.375 131.344 19.375ZM147.826 19.375C146.493 19.375 145.289 19.1417 144.214 18.675C143.147 18.2 142.268 17.525 141.576 16.65C140.893 15.7667 140.46 14.7167 140.276 13.5L143.826 12.975C144.076 14.0083 144.593 14.8042 145.376 15.3625C146.16 15.9208 147.051 16.2 148.051 16.2C148.61 16.2 149.151 16.1125 149.676 15.9375C150.201 15.7625 150.631 15.5042 150.964 15.1625C151.306 14.8208 151.476 14.4 151.476 13.9C151.476 13.7167 151.447 13.5417 151.389 13.375C151.339 13.2 151.251 13.0375 151.126 12.8875C151.001 12.7375 150.822 12.5958 150.589 12.4625C150.364 12.3292 150.076 12.2083 149.726 12.1L145.051 10.725C144.701 10.625 144.293 10.4833 143.826 10.3C143.368 10.1167 142.922 9.85417 142.489 9.5125C142.056 9.17083 141.693 8.72083 141.401 8.1625C141.118 7.59583 140.976 6.88333 140.976 6.025C140.976 4.81667 141.281 3.8125 141.889 3.0125C142.497 2.2125 143.31 1.61667 144.326 1.225C145.343 0.833332 146.468 0.641666 147.701 0.649999C148.943 0.666666 150.051 0.879166 151.026 1.2875C152.001 1.69583 152.818 2.29167 153.476 3.075C154.135 3.85 154.61 4.8 154.901 5.925L151.226 6.55C151.093 5.96667 150.847 5.475 150.489 5.075C150.131 4.675 149.701 4.37083 149.201 4.1625C148.71 3.95417 148.193 3.84167 147.651 3.825C147.118 3.80833 146.614 3.88333 146.139 4.05C145.672 4.20833 145.289 4.44167 144.989 4.75C144.697 5.05833 144.551 5.425 144.551 5.85C144.551 6.24167 144.672 6.5625 144.914 6.8125C145.156 7.05417 145.46 7.25 145.826 7.4C146.193 7.55 146.568 7.675 146.951 7.775L150.076 8.625C150.543 8.75 151.06 8.91667 151.626 9.125C152.193 9.325 152.735 9.60833 153.251 9.975C153.776 10.3333 154.206 10.8083 154.539 11.4C154.881 11.9917 155.051 12.7417 155.051 13.65C155.051 14.6167 154.847 15.4625 154.439 16.1875C154.039 16.9042 153.497 17.5 152.814 17.975C152.131 18.4417 151.356 18.7917 150.489 19.025C149.631 19.2583 148.743 19.375 147.826 19.375Z" fill="#F2994A"/>
</svg>
