<svg width="26" height="26" viewBox="0 0 26 26" fill="none" xmlns="http://www.w3.org/2000/svg">
<path d="M13.3396 12.9766C13.3826 12.9609 13.4282 12.9492 13.4739 12.9361C13.3582 12.6796 13.2369 12.4257 13.11 12.1745C10.6582 12.9009 8.31069 12.9074 7.89205 12.9009C7.88814 12.9335 7.88814 12.9674 7.88814 13C7.88814 14.2325 8.33155 15.4167 9.13753 16.3465C9.40619 15.9136 10.8303 13.7891 13.3396 12.9766ZM9.90047 17.0599C10.6098 17.6035 11.4495 17.9513 12.3354 18.0685C13.2214 18.1857 14.1226 18.0681 14.9489 17.7276C14.7093 16.4272 14.3505 15.1515 13.8769 13.9169C11.1107 14.895 10.0661 16.7365 9.90047 17.0599ZM16.3326 9.12275C15.7298 8.60495 15.0146 8.2348 14.2437 8.0417C13.4729 7.84859 12.6677 7.83784 11.8919 8.0103C12.5726 8.93501 13.1916 9.90349 13.7451 10.9095C15.4184 10.2665 16.1748 9.33925 16.3326 9.12275ZM12.6157 11.2577C12.0536 10.272 11.4376 9.31806 10.7703 8.40025C10.0815 8.73588 9.47651 9.2214 8.99968 9.82121C8.52285 10.421 8.18628 11.1199 8.01464 11.8667H8.03681C8.5663 11.8667 10.4482 11.8237 12.6157 11.2577ZM14.975 13.6469C15.5814 15.3332 15.8605 16.7339 15.9401 17.1825C17.0515 16.3989 17.8063 15.206 18.0385 13.866C17.3631 13.6742 16.6643 13.5772 15.9622 13.5778C15.6258 13.5778 15.2932 13.6013 14.975 13.6469ZM13.0005 0.480042C6.08578 0.480042 0.480469 6.08535 0.480469 13C0.480469 19.9147 6.08578 25.52 13.0005 25.52C19.9152 25.52 25.5205 19.9147 25.5205 13C25.5205 6.08535 19.9152 0.480042 13.0005 0.480042ZM13.0005 19.1257C11.376 19.1243 9.81847 18.4786 8.66957 17.3302C7.52067 16.1818 6.87426 14.6245 6.87219 13C6.87357 11.3751 7.51967 9.81719 8.66865 8.66822C9.81762 7.51924 11.3756 6.87314 13.0005 6.87176C14.625 6.87383 16.1824 7.5202 17.3311 8.66906C18.4797 9.81792 19.1257 11.3755 19.1274 13C19.1257 14.6244 18.4796 16.1816 17.3309 17.3301C16.1822 18.4785 14.6248 19.1243 13.0005 19.1257ZM14.2029 11.7924C14.3164 12.0271 14.422 12.258 14.5185 12.4849L14.6111 12.7066C14.9724 12.6636 15.3584 12.6427 15.7614 12.6427C16.5496 12.6443 17.3359 12.7194 18.1102 12.867C18.0804 11.7562 17.6905 10.6852 16.999 9.81527C16.7904 10.0839 15.9322 11.0712 14.2029 11.7924Z" fill="#F2994A"/>
</svg>
