<svg width="26" height="26" viewBox="0 0 26 26" fill="none" xmlns="http://www.w3.org/2000/svg">
<path d="M15.0844 12.7829L12.1646 11.4205C11.9098 11.3022 11.7005 11.4348 11.7005 11.7169V14.2831C11.7005 14.5652 11.9098 14.6978 12.1646 14.5795L15.0831 13.2171C15.3392 13.0975 15.3392 12.9025 15.0844 12.7829ZM13.0005 0.52002C6.10791 0.52002 0.520508 6.10742 0.520508 13C0.520508 19.8926 6.10791 25.48 13.0005 25.48C19.8931 25.48 25.4805 19.8926 25.4805 13C25.4805 6.10742 19.8931 0.52002 13.0005 0.52002ZM13.0005 18.07C6.61231 18.07 6.50051 17.4941 6.50051 13C6.50051 8.50592 6.61231 7.93002 13.0005 7.93002C19.3887 7.93002 19.5005 8.50592 19.5005 13C19.5005 17.4941 19.3887 18.07 13.0005 18.07Z" fill="#F2994A"/>
</svg>
